<svg version="1.1" xmlns="http://www.w3.org/2000/svg" xmlns:xlink="http://www.w3.org/1999/xlink" width="21" height="24" viewBox="0,0,21,24"><g transform="translate(-229.5,-168)"><g data-paper-data="{&quot;isPaintingLayer&quot;:true}" fill="#ffffff" fill-rule="nonzero" stroke="none" stroke-width="1" stroke-linecap="butt" stroke-linejoin="miter" stroke-miterlimit="10" stroke-dasharray="" stroke-dashoffset="0" style="mix-blend-mode: normal"><path d="M250.5,186.80111c-0.00342,0.32678 -0.13524,0.63858 -0.36608,0.86588c-0.23084,0.22731 -0.54149,0.35121 -0.8627,0.34409h-18.45773c-0.35818,0.03373 -0.71238,-0.09739 -0.96546,-0.35739c-0.25308,-0.26 -0.37846,-0.62158 -0.34174,-0.98554c0.00744,-0.48685 0.30106,-0.92174 0.74511,-1.1036l-0.16994,0.07977c0.80404,-0.47216 1.3016,-1.34264 1.30721,-2.28698v-5.31856c0.11858,-3.95334 2.94358,-7.28171 6.77132,-7.97784v-0.18615c0,-1.03542 0.82521,-1.87479 1.84316,-1.87479c1.01795,0 1.84316,0.83937 1.84316,1.87479v0.31911c3.82775,0.69613 6.65274,4.0245 6.77132,7.97784v5.31856c0.0056,0.94434 0.50315,1.81482 1.3072,2.28698l-0.16994,-0.07978c0.44405,0.18186 0.73767,0.61675 0.74511,1.1036zM238.19369,191.22112c-0.4903,-0.49871 -0.76574,-1.17511 -0.76574,-1.88039h5.22882c0,1.46868 -1.17051,2.65928 -2.61441,2.65928c-0.69338,0 -1.35837,-0.28017 -1.84866,-0.77889z"/></g></g></svg>